<svg width="180" height="70" viewBox="0 0 180 70" fill="none" xmlns="http://www.w3.org/2000/svg">
<path d="M60.3523 29.0881V26.0455H74.6875V29.0881H69.3438V43.5H65.696V29.0881H60.3523ZM92.2912 34.7727C92.2912 36.6761 91.9304 38.2955 91.2088 39.6307C90.4929 40.9659 89.5156 41.9858 88.277 42.6903C87.044 43.3892 85.6577 43.7386 84.1179 43.7386C82.5668 43.7386 81.1747 43.3864 79.9418 42.6818C78.7088 41.9773 77.7344 40.9574 77.0185 39.6222C76.3026 38.2869 75.9446 36.6705 75.9446 34.7727C75.9446 32.8693 76.3026 31.25 77.0185 29.9148C77.7344 28.5795 78.7088 27.5625 79.9418 26.8636C81.1747 26.1591 82.5668 25.8068 84.1179 25.8068C85.6577 25.8068 87.044 26.1591 88.277 26.8636C89.5156 27.5625 90.4929 28.5795 91.2088 29.9148C91.9304 31.25 92.2912 32.8693 92.2912 34.7727ZM88.5497 34.7727C88.5497 33.5398 88.3651 32.5 87.9957 31.6534C87.6321 30.8068 87.1179 30.1648 86.4531 29.7273C85.7884 29.2898 85.0099 29.071 84.1179 29.071C83.2259 29.071 82.4474 29.2898 81.7827 29.7273C81.1179 30.1648 80.6009 30.8068 80.2315 31.6534C79.8679 32.5 79.6861 33.5398 79.6861 34.7727C79.6861 36.0057 79.8679 37.0455 80.2315 37.892C80.6009 38.7386 81.1179 39.3807 81.7827 39.8182C82.4474 40.2557 83.2259 40.4744 84.1179 40.4744C85.0099 40.4744 85.7884 40.2557 86.4531 39.8182C87.1179 39.3807 87.6321 38.7386 87.9957 37.892C88.3651 37.0455 88.5497 36.0057 88.5497 34.7727ZM101.212 43.5H95.0249V26.0455H101.263C103.019 26.0455 104.531 26.3949 105.798 27.0938C107.065 27.7869 108.039 28.7841 108.721 30.0852C109.408 31.3864 109.752 32.9432 109.752 34.7557C109.752 36.5739 109.408 38.1364 108.721 39.4432C108.039 40.75 107.059 41.7528 105.781 42.4517C104.508 43.1506 102.985 43.5 101.212 43.5ZM98.7152 40.3381H101.059C102.15 40.3381 103.067 40.1449 103.812 39.7585C104.562 39.3665 105.124 38.7614 105.499 37.9432C105.88 37.1193 106.07 36.0568 106.07 34.7557C106.07 33.4659 105.88 32.4119 105.499 31.5938C105.124 30.7756 104.565 30.1733 103.82 29.7869C103.076 29.4006 102.158 29.2074 101.067 29.2074H98.7152V40.3381ZM128.526 34.7727C128.526 36.6761 128.165 38.2955 127.443 39.6307C126.727 40.9659 125.75 41.9858 124.511 42.6903C123.278 43.3892 121.892 43.7386 120.352 43.7386C118.801 43.7386 117.409 43.3864 116.176 42.6818C114.943 41.9773 113.969 40.9574 113.253 39.6222C112.537 38.2869 112.179 36.6705 112.179 34.7727C112.179 32.8693 112.537 31.25 113.253 29.9148C113.969 28.5795 114.943 27.5625 116.176 26.8636C117.409 26.1591 118.801 25.8068 120.352 25.8068C121.892 25.8068 123.278 26.1591 124.511 26.8636C125.75 27.5625 126.727 28.5795 127.443 29.9148C128.165 31.25 128.526 32.8693 128.526 34.7727ZM124.784 34.7727C124.784 33.5398 124.599 32.5 124.23 31.6534C123.866 30.8068 123.352 30.1648 122.688 29.7273C122.023 29.2898 121.244 29.071 120.352 29.071C119.46 29.071 118.682 29.2898 118.017 29.7273C117.352 30.1648 116.835 30.8068 116.466 31.6534C116.102 32.5 115.92 33.5398 115.92 34.7727C115.92 36.0057 116.102 37.0455 116.466 37.892C116.835 38.7386 117.352 39.3807 118.017 39.8182C118.682 40.2557 119.46 40.4744 120.352 40.4744C121.244 40.4744 122.023 40.2557 122.688 39.8182C123.352 39.3807 123.866 38.7386 124.23 37.892C124.599 37.0455 124.784 36.0057 124.784 34.7727ZM140.376 26.0455V43.5H136.746V26.0455H140.376ZM143.285 43.5V30.4091H146.915V43.5H143.285ZM145.109 28.7216C144.569 28.7216 144.106 28.5426 143.719 28.1847C143.339 27.821 143.148 27.3864 143.148 26.8807C143.148 26.3807 143.339 25.9517 143.719 25.5938C144.106 25.2301 144.569 25.0483 145.109 25.0483C145.648 25.0483 146.109 25.2301 146.489 25.5938C146.876 25.9517 147.069 26.3807 147.069 26.8807C147.069 27.3864 146.876 27.821 146.489 28.1847C146.109 28.5426 145.648 28.7216 145.109 28.7216ZM160.716 34.142L157.392 34.3466C157.335 34.0625 157.213 33.8068 157.026 33.5795C156.838 33.3466 156.591 33.1619 156.284 33.0256C155.983 32.8835 155.622 32.8125 155.202 32.8125C154.639 32.8125 154.165 32.9318 153.778 33.1705C153.392 33.4034 153.199 33.7159 153.199 34.108C153.199 34.4205 153.324 34.6847 153.574 34.9006C153.824 35.1165 154.253 35.2898 154.861 35.4205L157.23 35.8977C158.503 36.1591 159.452 36.5795 160.077 37.1591C160.702 37.7386 161.014 38.5 161.014 39.4432C161.014 40.3011 160.761 41.054 160.256 41.7017C159.756 42.3494 159.068 42.8551 158.193 43.2188C157.324 43.5767 156.321 43.7557 155.185 43.7557C153.452 43.7557 152.071 43.3949 151.043 42.6733C150.02 41.946 149.42 40.9574 149.244 39.7074L152.815 39.5199C152.923 40.0483 153.185 40.4517 153.599 40.7301C154.014 41.0028 154.545 41.1392 155.193 41.1392C155.83 41.1392 156.341 41.017 156.727 40.7727C157.119 40.5227 157.318 40.2017 157.324 39.8097C157.318 39.4801 157.179 39.2102 156.906 39C156.634 38.7841 156.213 38.6193 155.645 38.5057L153.378 38.054C152.099 37.7983 151.148 37.3551 150.523 36.7244C149.903 36.0937 149.594 35.2898 149.594 34.3125C149.594 33.4716 149.821 32.7472 150.276 32.1392C150.736 31.5312 151.381 31.0625 152.21 30.733C153.045 30.4034 154.023 30.2386 155.142 30.2386C156.795 30.2386 158.097 30.5881 159.045 31.2869C160 31.9858 160.557 32.9375 160.716 34.142ZM170.263 30.4091V33.1364H162.38V30.4091H170.263ZM164.17 27.2727H167.8V39.4773C167.8 39.8125 167.852 40.0739 167.954 40.2614C168.056 40.4432 168.198 40.571 168.38 40.6449C168.567 40.7187 168.783 40.7557 169.028 40.7557C169.198 40.7557 169.369 40.7415 169.539 40.7131C169.71 40.679 169.84 40.6534 169.931 40.6364L170.502 43.3381C170.32 43.3949 170.065 43.4602 169.735 43.5341C169.406 43.6136 169.005 43.6619 168.533 43.679C167.658 43.7131 166.891 43.5966 166.232 43.3295C165.579 43.0625 165.07 42.6477 164.707 42.0852C164.343 41.5227 164.164 40.8125 164.17 39.9545V27.2727Z" fill="#353644"/>
<path d="M25.3906 35L30.5312 40.1406L39.3438 31.3281M51.0938 35C51.0937 40.064 49.0821 44.9205 45.5013 48.5013C41.9205 52.0821 37.064 54.0938 32 54.0938C26.936 54.0938 22.0795 52.0821 18.4987 48.5013C14.9179 44.9205 12.9063 40.064 12.9062 35C12.9063 29.936 14.9179 25.0795 18.4987 21.4987C22.0795 17.9179 26.936 15.9063 32 15.9062C37.064 15.9063 41.9205 17.9179 45.5013 21.4987C49.0821 25.0795 51.0937 29.936 51.0938 35Z" stroke="#FDBF46" stroke-width="2.9375" stroke-linecap="round" stroke-linejoin="round"/>
</svg>
